# xmcd
#
# Track frame offsets:
#	150
#	19317
#	33895
#	46080
#	58202
#	72476
#	79949
#	85060
#	105338
#	116652
#	134051
#	148915
#	159683
#	175658
#	182999
#	191472
#	198499
#	214545
#
# Disc length: 3049 seconds
# Revision: 0
# Processed by: cddbd v1.5.2PL0 Copyright (c) Steve Scherf et al.
# Submitted via: dBpowerAMP V12.0
#
DISCID=060be712
DTITLE=AgoZeno - Poeticomacido dal vivo
DYEAR=1900
DGENRE=Psichedelic Pop
TTITLE0=Clown Suite
TTITLE1=Desertidicemento
TTITLE2=Spider's Web
TTITLE3=Regretted
TTITLE4=Poet
TTITLE5=Il Passo del Clown
TTITLE6=Cerca dove Sai
TTITLE7=Asa Nisi Masa
TTITLE8=Now, Ever!
TTITLE9=Ventilazione (Ivano Fossati)
TTITLE10=La Donna, Il Genio (... o quel che sei)
TTITLE11=Violent Rush Of Wind
TTITLE12=Heartly Hell's Calling
TTITLE13=Solo Follia
TTITLE14=Verità
TTITLE15=Over The Brim
TTITLE16=Ego (Sogno di donna)
TTITLE17=Solo Follia REMIX
EXTD=
EXTT0=
EXTT1=
EXTT2=
EXTT3=
EXTT4=
EXTT5=
EXTT6=
EXTT7=
EXTT8=
EXTT9=
EXTT10=
EXTT11=
EXTT12=
EXTT13=
EXTT14=
EXTT15=
EXTT16=
EXTT17=
PLAYORDER=
